<svg xmlns="http://www.w3.org/2000/svg" width="52" height="52" viewBox="0 0 52 52">
  <g id="dec" transform="translate(-871 -3696)">
    <circle id="Elipse_20" data-name="Elipse 20" cx="2" cy="2" r="2" transform="translate(871 3732)" fill="#fff"/>
    <circle id="Elipse_25" data-name="Elipse 25" cx="2" cy="2" r="2" transform="translate(871 3744)" fill="#fff"/>
    <circle id="Elipse_9" data-name="Elipse 9" cx="2" cy="2" r="2" transform="translate(883 3708)" fill="#fff"/>
    <circle id="Elipse_14" data-name="Elipse 14" cx="2" cy="2" r="2" transform="translate(883 3720)" fill="#fff"/>
    <circle id="Elipse_19" data-name="Elipse 19" cx="2" cy="2" r="2" transform="translate(883 3732)" fill="#fff"/>
    <circle id="Elipse_24" data-name="Elipse 24" cx="2" cy="2" r="2" transform="translate(883 3744)" fill="#fff"/>
    <circle id="Elipse_8" data-name="Elipse 8" cx="2" cy="2" r="2" transform="translate(895 3708)" fill="#fff"/>
    <circle id="Elipse_13" data-name="Elipse 13" cx="2" cy="2" r="2" transform="translate(895 3720)" fill="#fff"/>
    <circle id="Elipse_18" data-name="Elipse 18" cx="2" cy="2" r="2" transform="translate(895 3732)" fill="#fff"/>
    <circle id="Elipse_23" data-name="Elipse 23" cx="2" cy="2" r="2" transform="translate(895 3744)" fill="#fff"/>
    <circle id="Elipse_4" data-name="Elipse 4" cx="2" cy="2" r="2" transform="translate(907 3696)" fill="#fff"/>
    <circle id="Elipse_7" data-name="Elipse 7" cx="2" cy="2" r="2" transform="translate(907 3708)" fill="#fff"/>
    <circle id="Elipse_12" data-name="Elipse 12" cx="2" cy="2" r="2" transform="translate(907 3720)" fill="#fff"/>
    <circle id="Elipse_17" data-name="Elipse 17" cx="2" cy="2" r="2" transform="translate(907 3732)" fill="#fff"/>
    <circle id="Elipse_22" data-name="Elipse 22" cx="2" cy="2" r="2" transform="translate(907 3744)" fill="#fff"/>
    <circle id="Elipse_5" data-name="Elipse 5" cx="2" cy="2" r="2" transform="translate(919 3696)" fill="#fff"/>
    <circle id="Elipse_6" data-name="Elipse 6" cx="2" cy="2" r="2" transform="translate(919 3708)" fill="#fff"/>
    <circle id="Elipse_11" data-name="Elipse 11" cx="2" cy="2" r="2" transform="translate(919 3720)" fill="#fff"/>
    <circle id="Elipse_16" data-name="Elipse 16" cx="2" cy="2" r="2" transform="translate(919 3732)" fill="#fff"/>
    <circle id="Elipse_21" data-name="Elipse 21" cx="2" cy="2" r="2" transform="translate(919 3744)" fill="#fff"/>
  </g>
</svg>
