<svg xmlns="http://www.w3.org/2000/svg" width="14" height="14" viewBox="0 0 14 14">
  <g id="logoUser" transform="translate(-1319.604 -54.576)">
    <g id="Elipse_1" data-name="Elipse 1" transform="translate(1319.604 54.576)" fill="none" stroke="#fff" stroke-width="1">
      <circle cx="7" cy="7" r="7" stroke="none"/>
      <circle cx="7" cy="7" r="6.5" fill="none"/>
    </g>
    <g id="usuario" transform="translate(1321.83 55.865)">
      <path id="Caminho_21" data-name="Caminho 21" d="M5.623,3.934A1.311,1.311,0,1,0,4.311,2.623,1.311,1.311,0,0,0,5.623,3.934Zm0,1.311A2.623,2.623,0,1,0,3,2.623,2.623,2.623,0,0,0,5.623,5.245Z" transform="translate(-1.033)" fill="#fff" fill-rule="evenodd"/>
      <path id="Caminho_22" data-name="Caminho 22" d="M4.589,10.311a3.278,3.278,0,0,0-3.278,3.278.656.656,0,0,1-1.311,0,4.589,4.589,0,1,1,9.179,0,.656.656,0,0,1-1.311,0A3.278,3.278,0,0,0,4.589,10.311Z" transform="translate(0 -3.099)" fill="#fff" fill-rule="evenodd"/>
    </g>
  </g>
</svg>
