<svg xmlns="http://www.w3.org/2000/svg" width="12" height="13.5" viewBox="0 0 29.239 24.963">
  <g id="mão" transform="translate(-109.618 -156.139)">
    <path id="Caminho_12" data-name="Caminho 12" d="M119.009,175.756c-.114.066-.275.028-.418.038a5.937,5.937,0,0,1-3.8-1.461c-1.083-.74-2.745.095-3.884-1.006a3.686,3.686,0,0,1-1.282-2.827c.009-3.036-.028-6.062.009-9.1.028-2.808,1.577-4.174,4.378-3.9a1.789,1.789,0,0,0,1.168-.294,3.873,3.873,0,0,1,4.122-.085,1.124,1.124,0,0,0,1.377-.095,4.391,4.391,0,0,1,5.242.009,1.236,1.236,0,0,0,1.6.009c2.745-1.67,5.366-1,7.085,1.708a10.715,10.715,0,0,0,.836,1.29c2.963,3.482,3.59,7.514,3.381,11.964-.114,2.4-.513,4.155-2.688,5.408-1.529.882-2.84,2.116-4.3,3.121-1.671,1.148-2.973.5-3.191-1.527a8.27,8.27,0,0,1,0-1.679c.048-.531-1.368-.835-1.89-.835a7.368,7.368,0,0,1-4.416-.009C120.253,175.718,120.282,175.025,119.009,175.756Z"/>
    <path id="Caminho_13" data-name="Caminho 13" d="M142.393,186.646c0,3.033.01-.123,0,2.91-.009,1.64-.589,2.228-2.145,2.228-1.5,0-2.079-.616-2.079-2.294-.009-5.915,0,2.379,0-3.545,0-.37.009-.749-.009-1.119-.019-.531-.256-.919-.816-.948-.655-.028-.883.417-.883,1-.01,1.261-.047,2.521.009,3.773.047,1.1-.1,1.962-1.49,1.991-1.329.028-2.705-.919-2.753-2.038-.057-1.393-.019-2.8-.019-4.19,0-.692-.038-1.412-.959-1.374-.873.038-.769.777-.778,1.374-.01,1.119,0,2.237-.01,3.356-.009,1.213-.617,1.536-1.661.9a1.764,1.764,0,0,1-.892-1.63c.009-3.071-.038-6.152.019-9.223.038-1.744,1.1-2.474,2.705-1.877a1.378,1.378,0,0,0,1.6-.341,2.2,2.2,0,0,1,3.256.009c.721.664,1.205.578,1.917.028,2.012-1.564,2.857-1.574,4.831-.019a1.358,1.358,0,0,0,2.041-.028c2.24-1.81,3.844-1.3,5.591.938a16.976,16.976,0,0,1,3.673,12.986,2.986,2.986,0,0,1-1.253,2.55c-1.4.929-2.677,2.029-4.053,2.976-.361.246-.892,1.156-1.272.417-.313-.607-.551-1.924.408-2.209,2.534-.749,2.724-2.645,2.734-4.73.009-1.953,0-3.915.009-5.868,0-.645-.057-1.3-.883-1.318-.883-.019-.854.692-.864,1.3-.009,2.19-.047,4.379-.009,6.569.038,2.408-1.253,2.616-3.559,2.133-.683-.142-.731-.739-.731-1.337.009-1.536.019-3.071,0-4.616-.009-.626.19-1.469-.788-1.479-1.044-.009-.892.872-.9,1.555C142.384,188.533,142.384,183.575,142.393,186.646Z" transform="translate(-16.538 -16.575)" fill="#a270ff"/>
  </g>
</svg>
